<?xml version="1.0" standalone="no"?><!DOCTYPE svg PUBLIC "-//W3C//DTD SVG 1.1//EN" "http://www.w3.org/Graphics/SVG/1.1/DTD/svg11.dtd"><svg class="icon" width="200px" height="200.00px" viewBox="0 0 1024 1024" version="1.1" xmlns="http://www.w3.org/2000/svg"><path d="M874.86489 141.212162 147.399583 141.212162c-40.09723 0-72.721255 32.501228-72.721255 72.658833l0 472.198505c0 40.033785 32.624025 72.531943 72.721255 72.531943l72.845075 0 0 144.012951 144.136771-144.012951 510.48346 0c40.095183 0 72.595388-32.498158 72.595388-72.531943L947.460278 213.870995C947.461301 173.71339 914.960073 141.212162 874.86489 141.212162zM365.564371 486.330364c-19.923772 0-36.236296-16.188704-36.236296-36.172851 0-20.173458 16.312524-36.425607 36.236296-36.425607 20.170388 0 36.485983 16.252149 36.485983 36.425607C402.050354 470.14166 385.735783 486.330364 365.564371 486.330364zM511.130701 486.330364c-20.046568 0-36.359093-16.188704-36.359093-36.172851 0-20.173458 16.312524-36.425607 36.359093-36.425607 20.049638 0 36.362162 16.252149 36.362162 36.425607C547.492864 470.14166 531.18034 486.330364 511.130701 486.330364zM653.212674 486.330364c-20.173458 0-36.423561-16.188704-36.423561-36.172851 0-20.173458 16.250102-36.425607 36.423561-36.425607 20.047592 0 36.235272 16.252149 36.235272 36.425607C689.447946 470.14166 673.260266 486.330364 653.212674 486.330364z" /></svg>